<mxfile host="app.diagrams.net" modified="2024-05-22T11:35:43.944Z" agent="Mozilla/5.0 (Windows NT 10.0; Win64; x64) AppleWebKit/537.36 (KHTML, like Gecko) Chrome/125.0.0.0 Safari/537.36 Edg/125.0.0.0" etag="gv-85U9YcFHpdEuKAYlW" version="24.4.4" type="github">
  <diagram name="第 1 页" id="3d9ARyCZtko17SjuDn9j">
    <mxGraphModel dx="691" dy="369" grid="1" gridSize="10" guides="1" tooltips="1" connect="1" arrows="1" fold="1" page="1" pageScale="1" pageWidth="1000" pageHeight="1000" math="0" shadow="0">
      <root>
        <mxCell id="0" />
        <mxCell id="1" parent="0" />
        <mxCell id="aczb6XzLxd1H7drs5TGw-29" style="edgeStyle=none;rounded=0;orthogonalLoop=1;jettySize=auto;html=1;exitX=1;exitY=0;exitDx=0;exitDy=0;" edge="1" parent="1" source="aczb6XzLxd1H7drs5TGw-1" target="aczb6XzLxd1H7drs5TGw-6">
          <mxGeometry relative="1" as="geometry" />
        </mxCell>
        <mxCell id="aczb6XzLxd1H7drs5TGw-30" value="3" style="edgeLabel;html=1;align=center;verticalAlign=middle;resizable=0;points=[];" vertex="1" connectable="0" parent="aczb6XzLxd1H7drs5TGw-29">
          <mxGeometry x="-0.012" y="-1" relative="1" as="geometry">
            <mxPoint as="offset" />
          </mxGeometry>
        </mxCell>
        <mxCell id="aczb6XzLxd1H7drs5TGw-31" style="edgeStyle=none;rounded=0;orthogonalLoop=1;jettySize=auto;html=1;exitX=1;exitY=0.5;exitDx=0;exitDy=0;entryX=0;entryY=0.5;entryDx=0;entryDy=0;" edge="1" parent="1" source="aczb6XzLxd1H7drs5TGw-1" target="aczb6XzLxd1H7drs5TGw-2">
          <mxGeometry relative="1" as="geometry" />
        </mxCell>
        <mxCell id="aczb6XzLxd1H7drs5TGw-32" value="2" style="edgeLabel;html=1;align=center;verticalAlign=middle;resizable=0;points=[];" vertex="1" connectable="0" parent="aczb6XzLxd1H7drs5TGw-31">
          <mxGeometry x="-0.0265" y="1" relative="1" as="geometry">
            <mxPoint as="offset" />
          </mxGeometry>
        </mxCell>
        <mxCell id="aczb6XzLxd1H7drs5TGw-1" value="s" style="ellipse;whiteSpace=wrap;html=1;aspect=fixed;" vertex="1" parent="1">
          <mxGeometry x="110" y="150" width="30" height="30" as="geometry" />
        </mxCell>
        <mxCell id="aczb6XzLxd1H7drs5TGw-18" style="edgeStyle=none;rounded=0;orthogonalLoop=1;jettySize=auto;html=1;exitX=1;exitY=0.5;exitDx=0;exitDy=0;entryX=0;entryY=0.5;entryDx=0;entryDy=0;" edge="1" parent="1" source="aczb6XzLxd1H7drs5TGw-2" target="aczb6XzLxd1H7drs5TGw-3">
          <mxGeometry relative="1" as="geometry" />
        </mxCell>
        <mxCell id="aczb6XzLxd1H7drs5TGw-24" value="4" style="edgeLabel;html=1;align=center;verticalAlign=middle;resizable=0;points=[];" vertex="1" connectable="0" parent="aczb6XzLxd1H7drs5TGw-18">
          <mxGeometry x="-0.3106" relative="1" as="geometry">
            <mxPoint as="offset" />
          </mxGeometry>
        </mxCell>
        <mxCell id="aczb6XzLxd1H7drs5TGw-2" value="c1" style="ellipse;whiteSpace=wrap;html=1;aspect=fixed;" vertex="1" parent="1">
          <mxGeometry x="220" y="150" width="30" height="30" as="geometry" />
        </mxCell>
        <mxCell id="aczb6XzLxd1H7drs5TGw-41" style="edgeStyle=none;rounded=0;orthogonalLoop=1;jettySize=auto;html=1;exitX=1;exitY=0;exitDx=0;exitDy=0;entryX=0;entryY=1;entryDx=0;entryDy=0;" edge="1" parent="1" source="aczb6XzLxd1H7drs5TGw-3" target="aczb6XzLxd1H7drs5TGw-12">
          <mxGeometry relative="1" as="geometry" />
        </mxCell>
        <mxCell id="aczb6XzLxd1H7drs5TGw-42" value="7" style="edgeLabel;html=1;align=center;verticalAlign=middle;resizable=0;points=[];" vertex="1" connectable="0" parent="aczb6XzLxd1H7drs5TGw-41">
          <mxGeometry x="-0.3911" y="1" relative="1" as="geometry">
            <mxPoint as="offset" />
          </mxGeometry>
        </mxCell>
        <mxCell id="aczb6XzLxd1H7drs5TGw-3" value="c2" style="ellipse;whiteSpace=wrap;html=1;aspect=fixed;" vertex="1" parent="1">
          <mxGeometry x="290" y="150" width="30" height="30" as="geometry" />
        </mxCell>
        <mxCell id="aczb6XzLxd1H7drs5TGw-19" style="edgeStyle=none;rounded=0;orthogonalLoop=1;jettySize=auto;html=1;exitX=1;exitY=0.5;exitDx=0;exitDy=0;entryX=0;entryY=0.5;entryDx=0;entryDy=0;" edge="1" parent="1" source="aczb6XzLxd1H7drs5TGw-4" target="aczb6XzLxd1H7drs5TGw-5">
          <mxGeometry relative="1" as="geometry" />
        </mxCell>
        <mxCell id="aczb6XzLxd1H7drs5TGw-25" value="5" style="edgeLabel;html=1;align=center;verticalAlign=middle;resizable=0;points=[];" vertex="1" connectable="0" parent="aczb6XzLxd1H7drs5TGw-19">
          <mxGeometry x="-0.25" y="1" relative="1" as="geometry">
            <mxPoint y="1" as="offset" />
          </mxGeometry>
        </mxCell>
        <mxCell id="aczb6XzLxd1H7drs5TGw-4" value="e1" style="ellipse;whiteSpace=wrap;html=1;aspect=fixed;" vertex="1" parent="1">
          <mxGeometry x="220" y="210" width="30" height="30" as="geometry" />
        </mxCell>
        <mxCell id="aczb6XzLxd1H7drs5TGw-5" value="e2" style="ellipse;whiteSpace=wrap;html=1;aspect=fixed;" vertex="1" parent="1">
          <mxGeometry x="290" y="210" width="30" height="30" as="geometry" />
        </mxCell>
        <mxCell id="aczb6XzLxd1H7drs5TGw-17" style="edgeStyle=none;rounded=0;orthogonalLoop=1;jettySize=auto;html=1;exitX=1;exitY=0.5;exitDx=0;exitDy=0;entryX=0;entryY=0.5;entryDx=0;entryDy=0;" edge="1" parent="1" source="aczb6XzLxd1H7drs5TGw-6" target="aczb6XzLxd1H7drs5TGw-7">
          <mxGeometry relative="1" as="geometry" />
        </mxCell>
        <mxCell id="aczb6XzLxd1H7drs5TGw-23" value="5" style="edgeLabel;html=1;align=center;verticalAlign=middle;resizable=0;points=[];" vertex="1" connectable="0" parent="aczb6XzLxd1H7drs5TGw-17">
          <mxGeometry x="-0.3106" relative="1" as="geometry">
            <mxPoint as="offset" />
          </mxGeometry>
        </mxCell>
        <mxCell id="aczb6XzLxd1H7drs5TGw-6" value="a1" style="ellipse;whiteSpace=wrap;html=1;aspect=fixed;" vertex="1" parent="1">
          <mxGeometry x="220" y="90" width="30" height="30" as="geometry" />
        </mxCell>
        <mxCell id="aczb6XzLxd1H7drs5TGw-37" style="edgeStyle=none;rounded=0;orthogonalLoop=1;jettySize=auto;html=1;exitX=1;exitY=0.5;exitDx=0;exitDy=0;entryX=0;entryY=0.5;entryDx=0;entryDy=0;" edge="1" parent="1" source="aczb6XzLxd1H7drs5TGw-7" target="aczb6XzLxd1H7drs5TGw-12">
          <mxGeometry relative="1" as="geometry" />
        </mxCell>
        <mxCell id="aczb6XzLxd1H7drs5TGw-38" value="6" style="edgeLabel;html=1;align=center;verticalAlign=middle;resizable=0;points=[];" vertex="1" connectable="0" parent="aczb6XzLxd1H7drs5TGw-37">
          <mxGeometry x="-0.0359" y="2" relative="1" as="geometry">
            <mxPoint y="2" as="offset" />
          </mxGeometry>
        </mxCell>
        <mxCell id="aczb6XzLxd1H7drs5TGw-39" style="edgeStyle=none;rounded=0;orthogonalLoop=1;jettySize=auto;html=1;exitX=1;exitY=1;exitDx=0;exitDy=0;entryX=0;entryY=0;entryDx=0;entryDy=0;" edge="1" parent="1" source="aczb6XzLxd1H7drs5TGw-7" target="aczb6XzLxd1H7drs5TGw-8">
          <mxGeometry relative="1" as="geometry" />
        </mxCell>
        <mxCell id="aczb6XzLxd1H7drs5TGw-40" value="2" style="edgeLabel;html=1;align=center;verticalAlign=middle;resizable=0;points=[];" vertex="1" connectable="0" parent="aczb6XzLxd1H7drs5TGw-39">
          <mxGeometry x="-0.0072" relative="1" as="geometry">
            <mxPoint x="-30" y="-9" as="offset" />
          </mxGeometry>
        </mxCell>
        <mxCell id="aczb6XzLxd1H7drs5TGw-7" value="a2" style="ellipse;whiteSpace=wrap;html=1;aspect=fixed;" vertex="1" parent="1">
          <mxGeometry x="290" y="90" width="30" height="30" as="geometry" />
        </mxCell>
        <mxCell id="aczb6XzLxd1H7drs5TGw-21" style="edgeStyle=none;rounded=0;orthogonalLoop=1;jettySize=auto;html=1;exitX=1;exitY=0.5;exitDx=0;exitDy=0;" edge="1" parent="1" source="aczb6XzLxd1H7drs5TGw-8" target="aczb6XzLxd1H7drs5TGw-9">
          <mxGeometry relative="1" as="geometry" />
        </mxCell>
        <mxCell id="aczb6XzLxd1H7drs5TGw-27" value="5" style="edgeLabel;html=1;align=center;verticalAlign=middle;resizable=0;points=[];" vertex="1" connectable="0" parent="aczb6XzLxd1H7drs5TGw-21">
          <mxGeometry x="-0.1712" relative="1" as="geometry">
            <mxPoint x="-6" as="offset" />
          </mxGeometry>
        </mxCell>
        <mxCell id="aczb6XzLxd1H7drs5TGw-8" value="d1" style="ellipse;whiteSpace=wrap;html=1;aspect=fixed;" vertex="1" parent="1">
          <mxGeometry x="440" y="150" width="30" height="30" as="geometry" />
        </mxCell>
        <mxCell id="aczb6XzLxd1H7drs5TGw-55" style="edgeStyle=none;rounded=0;orthogonalLoop=1;jettySize=auto;html=1;exitX=1;exitY=0.5;exitDx=0;exitDy=0;entryX=0;entryY=0.5;entryDx=0;entryDy=0;" edge="1" parent="1" source="aczb6XzLxd1H7drs5TGw-9" target="aczb6XzLxd1H7drs5TGw-14">
          <mxGeometry relative="1" as="geometry" />
        </mxCell>
        <mxCell id="aczb6XzLxd1H7drs5TGw-56" value="4" style="edgeLabel;html=1;align=center;verticalAlign=middle;resizable=0;points=[];" vertex="1" connectable="0" parent="aczb6XzLxd1H7drs5TGw-55">
          <mxGeometry x="-0.225" y="-1" relative="1" as="geometry">
            <mxPoint as="offset" />
          </mxGeometry>
        </mxCell>
        <mxCell id="aczb6XzLxd1H7drs5TGw-9" value="d2" style="ellipse;whiteSpace=wrap;html=1;aspect=fixed;" vertex="1" parent="1">
          <mxGeometry x="510" y="150" width="30" height="30" as="geometry" />
        </mxCell>
        <mxCell id="aczb6XzLxd1H7drs5TGw-20" style="edgeStyle=none;rounded=0;orthogonalLoop=1;jettySize=auto;html=1;exitX=1;exitY=0.5;exitDx=0;exitDy=0;entryX=0;entryY=0.5;entryDx=0;entryDy=0;" edge="1" parent="1" source="aczb6XzLxd1H7drs5TGw-10" target="aczb6XzLxd1H7drs5TGw-11">
          <mxGeometry relative="1" as="geometry" />
        </mxCell>
        <mxCell id="aczb6XzLxd1H7drs5TGw-26" value="4" style="edgeLabel;html=1;align=center;verticalAlign=middle;resizable=0;points=[];" vertex="1" connectable="0" parent="aczb6XzLxd1H7drs5TGw-20">
          <mxGeometry x="-0.1106" y="1" relative="1" as="geometry">
            <mxPoint as="offset" />
          </mxGeometry>
        </mxCell>
        <mxCell id="aczb6XzLxd1H7drs5TGw-10" value="f1" style="ellipse;whiteSpace=wrap;html=1;aspect=fixed;" vertex="1" parent="1">
          <mxGeometry x="440" y="210" width="30" height="30" as="geometry" />
        </mxCell>
        <mxCell id="aczb6XzLxd1H7drs5TGw-47" style="edgeStyle=orthogonalEdgeStyle;curved=1;rounded=0;orthogonalLoop=1;jettySize=auto;html=1;exitX=0;exitY=1;exitDx=0;exitDy=0;entryX=0.5;entryY=1;entryDx=0;entryDy=0;" edge="1" parent="1" source="aczb6XzLxd1H7drs5TGw-11" target="aczb6XzLxd1H7drs5TGw-4">
          <mxGeometry relative="1" as="geometry">
            <Array as="points">
              <mxPoint x="514" y="280" />
              <mxPoint x="235" y="280" />
            </Array>
          </mxGeometry>
        </mxCell>
        <mxCell id="aczb6XzLxd1H7drs5TGw-51" value="6" style="edgeLabel;html=1;align=center;verticalAlign=middle;resizable=0;points=[];" vertex="1" connectable="0" parent="aczb6XzLxd1H7drs5TGw-47">
          <mxGeometry x="0.0126" relative="1" as="geometry">
            <mxPoint as="offset" />
          </mxGeometry>
        </mxCell>
        <mxCell id="aczb6XzLxd1H7drs5TGw-57" style="edgeStyle=none;rounded=0;orthogonalLoop=1;jettySize=auto;html=1;exitX=1;exitY=0;exitDx=0;exitDy=0;entryX=0;entryY=1;entryDx=0;entryDy=0;" edge="1" parent="1" source="aczb6XzLxd1H7drs5TGw-11" target="aczb6XzLxd1H7drs5TGw-14">
          <mxGeometry relative="1" as="geometry" />
        </mxCell>
        <mxCell id="aczb6XzLxd1H7drs5TGw-58" value="6" style="edgeLabel;html=1;align=center;verticalAlign=middle;resizable=0;points=[];" vertex="1" connectable="0" parent="aczb6XzLxd1H7drs5TGw-57">
          <mxGeometry x="-0.0333" y="3" relative="1" as="geometry">
            <mxPoint as="offset" />
          </mxGeometry>
        </mxCell>
        <mxCell id="aczb6XzLxd1H7drs5TGw-11" value="f2" style="ellipse;whiteSpace=wrap;html=1;aspect=fixed;" vertex="1" parent="1">
          <mxGeometry x="510" y="210" width="30" height="30" as="geometry" />
        </mxCell>
        <mxCell id="aczb6XzLxd1H7drs5TGw-22" style="edgeStyle=none;rounded=0;orthogonalLoop=1;jettySize=auto;html=1;exitX=1;exitY=0.5;exitDx=0;exitDy=0;entryX=0;entryY=0.5;entryDx=0;entryDy=0;" edge="1" parent="1" source="aczb6XzLxd1H7drs5TGw-12" target="aczb6XzLxd1H7drs5TGw-13">
          <mxGeometry relative="1" as="geometry" />
        </mxCell>
        <mxCell id="aczb6XzLxd1H7drs5TGw-28" value="4" style="edgeLabel;html=1;align=center;verticalAlign=middle;resizable=0;points=[];" vertex="1" connectable="0" parent="aczb6XzLxd1H7drs5TGw-22">
          <mxGeometry x="-0.2318" y="-1" relative="1" as="geometry">
            <mxPoint as="offset" />
          </mxGeometry>
        </mxCell>
        <mxCell id="aczb6XzLxd1H7drs5TGw-12" value="b1" style="ellipse;whiteSpace=wrap;html=1;aspect=fixed;" vertex="1" parent="1">
          <mxGeometry x="440" y="90" width="30" height="30" as="geometry" />
        </mxCell>
        <mxCell id="aczb6XzLxd1H7drs5TGw-53" style="edgeStyle=none;rounded=0;orthogonalLoop=1;jettySize=auto;html=1;exitX=0;exitY=1;exitDx=0;exitDy=0;entryX=1;entryY=0;entryDx=0;entryDy=0;" edge="1" parent="1" source="aczb6XzLxd1H7drs5TGw-13" target="aczb6XzLxd1H7drs5TGw-10">
          <mxGeometry relative="1" as="geometry" />
        </mxCell>
        <mxCell id="aczb6XzLxd1H7drs5TGw-54" value="3" style="edgeLabel;html=1;align=center;verticalAlign=middle;resizable=0;points=[];" vertex="1" connectable="0" parent="aczb6XzLxd1H7drs5TGw-53">
          <mxGeometry x="-0.4989" y="1" relative="1" as="geometry">
            <mxPoint as="offset" />
          </mxGeometry>
        </mxCell>
        <mxCell id="aczb6XzLxd1H7drs5TGw-59" style="edgeStyle=none;rounded=0;orthogonalLoop=1;jettySize=auto;html=1;exitX=1;exitY=0.5;exitDx=0;exitDy=0;entryX=0;entryY=0;entryDx=0;entryDy=0;" edge="1" parent="1" source="aczb6XzLxd1H7drs5TGw-13" target="aczb6XzLxd1H7drs5TGw-14">
          <mxGeometry relative="1" as="geometry" />
        </mxCell>
        <mxCell id="aczb6XzLxd1H7drs5TGw-60" value="2" style="edgeLabel;html=1;align=center;verticalAlign=middle;resizable=0;points=[];" vertex="1" connectable="0" parent="aczb6XzLxd1H7drs5TGw-59">
          <mxGeometry x="0.0162" relative="1" as="geometry">
            <mxPoint as="offset" />
          </mxGeometry>
        </mxCell>
        <mxCell id="aczb6XzLxd1H7drs5TGw-13" value="b2" style="ellipse;whiteSpace=wrap;html=1;aspect=fixed;" vertex="1" parent="1">
          <mxGeometry x="510" y="90" width="30" height="30" as="geometry" />
        </mxCell>
        <mxCell id="aczb6XzLxd1H7drs5TGw-14" value="t" style="ellipse;whiteSpace=wrap;html=1;aspect=fixed;" vertex="1" parent="1">
          <mxGeometry x="620" y="150" width="30" height="30" as="geometry" />
        </mxCell>
        <mxCell id="aczb6XzLxd1H7drs5TGw-33" style="edgeStyle=none;rounded=0;orthogonalLoop=1;jettySize=auto;html=1;exitX=1;exitY=1;exitDx=0;exitDy=0;entryX=0.054;entryY=0.321;entryDx=0;entryDy=0;entryPerimeter=0;" edge="1" parent="1" source="aczb6XzLxd1H7drs5TGw-1" target="aczb6XzLxd1H7drs5TGw-4">
          <mxGeometry relative="1" as="geometry" />
        </mxCell>
        <mxCell id="aczb6XzLxd1H7drs5TGw-34" value="9" style="edgeLabel;html=1;align=center;verticalAlign=middle;resizable=0;points=[];" vertex="1" connectable="0" parent="aczb6XzLxd1H7drs5TGw-33">
          <mxGeometry x="-0.0402" y="-1" relative="1" as="geometry">
            <mxPoint as="offset" />
          </mxGeometry>
        </mxCell>
        <mxCell id="aczb6XzLxd1H7drs5TGw-35" style="edgeStyle=none;rounded=0;orthogonalLoop=1;jettySize=auto;html=1;exitX=0;exitY=0;exitDx=0;exitDy=0;entryX=0.975;entryY=0.701;entryDx=0;entryDy=0;entryPerimeter=0;" edge="1" parent="1" source="aczb6XzLxd1H7drs5TGw-5" target="aczb6XzLxd1H7drs5TGw-6">
          <mxGeometry relative="1" as="geometry" />
        </mxCell>
        <mxCell id="aczb6XzLxd1H7drs5TGw-36" value="3" style="edgeLabel;html=1;align=center;verticalAlign=middle;resizable=0;points=[];" vertex="1" connectable="0" parent="aczb6XzLxd1H7drs5TGw-35">
          <mxGeometry x="-0.4915" y="-2" relative="1" as="geometry">
            <mxPoint x="-5" as="offset" />
          </mxGeometry>
        </mxCell>
        <mxCell id="aczb6XzLxd1H7drs5TGw-43" style="edgeStyle=none;rounded=0;orthogonalLoop=1;jettySize=auto;html=1;exitX=1;exitY=1;exitDx=0;exitDy=0;entryX=0.02;entryY=0.31;entryDx=0;entryDy=0;entryPerimeter=0;" edge="1" parent="1" source="aczb6XzLxd1H7drs5TGw-3" target="aczb6XzLxd1H7drs5TGw-10">
          <mxGeometry relative="1" as="geometry" />
        </mxCell>
        <mxCell id="aczb6XzLxd1H7drs5TGw-44" value="5" style="edgeLabel;html=1;align=center;verticalAlign=middle;resizable=0;points=[];" vertex="1" connectable="0" parent="aczb6XzLxd1H7drs5TGw-43">
          <mxGeometry x="-0.5708" y="1" relative="1" as="geometry">
            <mxPoint as="offset" />
          </mxGeometry>
        </mxCell>
        <mxCell id="aczb6XzLxd1H7drs5TGw-45" style="edgeStyle=none;rounded=0;orthogonalLoop=1;jettySize=auto;html=1;exitX=1;exitY=0;exitDx=0;exitDy=0;entryX=0.1;entryY=0.71;entryDx=0;entryDy=0;entryPerimeter=0;" edge="1" parent="1" source="aczb6XzLxd1H7drs5TGw-5" target="aczb6XzLxd1H7drs5TGw-8">
          <mxGeometry relative="1" as="geometry" />
        </mxCell>
        <mxCell id="aczb6XzLxd1H7drs5TGw-46" value="7" style="edgeLabel;html=1;align=center;verticalAlign=middle;resizable=0;points=[];" vertex="1" connectable="0" parent="aczb6XzLxd1H7drs5TGw-45">
          <mxGeometry x="0.3374" y="1" relative="1" as="geometry">
            <mxPoint as="offset" />
          </mxGeometry>
        </mxCell>
        <mxCell id="aczb6XzLxd1H7drs5TGw-62" value="" style="curved=1;endArrow=none;html=1;rounded=0;endFill=0;fillColor=#dae8fc;strokeColor=#6c8ebf;" edge="1" parent="1">
          <mxGeometry width="50" height="50" relative="1" as="geometry">
            <mxPoint x="130" y="60" as="sourcePoint" />
            <mxPoint x="320" y="300" as="targetPoint" />
            <Array as="points">
              <mxPoint x="160" y="190" />
              <mxPoint x="260" y="180" />
            </Array>
          </mxGeometry>
        </mxCell>
      </root>
    </mxGraphModel>
  </diagram>
</mxfile>
